<?xml version="1.0" encoding="utf-8"?>
<!-- Generator: Adobe Illustrator 16.0.3, SVG Export Plug-In . SVG Version: 6.00 Build 0)  -->
<!DOCTYPE svg PUBLIC "-//W3C//DTD SVG 1.1//EN" "http://www.w3.org/Graphics/SVG/1.1/DTD/svg11.dtd">
<svg version="1.1" id="Layer_1" xmlns="http://www.w3.org/2000/svg" xmlns:xlink="http://www.w3.org/1999/xlink" x="0px" y="0px"
	 width="220px" height="70px" viewBox="0 0 220 70" enable-background="new 0 0 220 70" xml:space="preserve">
<g>
	<g>
		<g>
			<g>
				<path fill="#114544" d="M4.347,36.553c2.897-2.65,6.801-3.976,11.712-3.976c4.909,0,8.813,1.326,11.711,3.976
					c2.895,2.655,4.343,6.252,4.343,10.801c0,4.543-1.448,8.144-4.343,10.797c-2.899,2.646-6.803,3.979-11.711,3.979
					c-4.911,0-8.815-1.332-11.712-3.979C1.451,55.497,0,51.896,0,47.354C0,42.805,1.451,39.208,4.347,36.553z M9.202,56.907
					c1.673,2.341,3.951,3.515,6.834,3.515s5.169-1.174,6.854-3.515c1.689-2.337,2.532-5.521,2.532-9.554s-0.842-7.22-2.532-9.56
					c-1.686-2.341-3.971-3.512-6.854-3.512s-5.161,1.171-6.834,3.512c-1.673,2.34-2.51,5.526-2.51,9.56S7.529,54.57,9.202,56.907z"
					/>
				<path fill="#114544" d="M94.731,61.156c0.704,0,1.31-0.254,1.812-0.752c0.504-0.506,0.77-1.108,0.8-1.811V36.068
					c-0.03-0.704-0.296-1.3-0.8-1.787c-0.502-0.487-1.108-0.729-1.812-0.729h-0.534v-0.407h12.405l-0.041,0.407h-0.487
					c-0.71,0-1.323,0.243-1.838,0.729c-0.517,0.486-0.774,1.083-0.774,1.787v22.525c0,0.702,0.258,1.305,0.774,1.811
					c0.516,0.498,1.128,0.752,1.838,0.752h0.487l0.041,0.398H94.198v-0.398H94.731z"/>
				<path fill="#114544" d="M118.642,61.156c0.704,0,1.311-0.254,1.813-0.752c0.497-0.506,0.766-1.108,0.799-1.811V35.985
					c-0.059-0.703-0.26-1.217-0.613-1.541c-0.657-0.598-1.316-0.893-1.998-0.893h-0.533v-0.407h15.622
					c1.34,0,2.441-0.102,3.317-0.305c0.862-0.204,1.395-0.345,1.589-0.429v7.106l-0.409-0.039v-0.447
					c0-1.679-0.625-2.869-1.887-3.574c-0.588-0.351-1.305-0.539-2.108-0.566h-6.859V46.7h5.383c1.009-0.022,1.839-0.368,2.485-1.033
					c0.66-0.665,0.99-1.483,0.99-2.455v-0.37h0.405v9.38h-0.405v-0.325c0-0.994-0.324-1.829-0.962-2.475
					c-0.647-0.654-1.446-0.992-2.437-1.016h-5.46v11.406h5.349c1.972,0,3.65-0.564,4.989-1.705c1.351-1.139,2.342-2.744,3.003-4.832
					h0.409l-1.874,8.279h-21.141v-0.398H118.642z"/>
				<path fill="#114544" d="M152.546,61.156c0.717,0,1.309-0.254,1.824-0.752c0.496-0.506,0.764-1.108,0.787-1.811V36.068
					c-0.023-0.975-0.479-1.708-1.337-2.192c-0.389-0.216-0.812-0.324-1.274-0.324h-0.537v-0.407h12.414l-0.048,0.407h-0.488
					c-0.702,0-1.315,0.243-1.825,0.729c-0.523,0.486-0.786,1.083-0.786,1.787v22.525c0,0.702,0.263,1.305,0.786,1.811
					c0.51,0.498,1.123,0.752,1.825,0.752h0.488l0.048,0.398h-12.414v-0.398H152.546z M193.067,68.455
					C191.081,69.48,189.276,70,187.644,70c-1.637,0-3.104-0.221-4.409-0.689c-3.234-1.165-6.538-3.83-9.927-7.996l-10.727-13.146
					l9.676-12.75c0.215-0.272,0.33-0.514,0.33-0.731s-0.047-0.405-0.126-0.567c-0.218-0.408-0.604-0.61-1.147-0.61h-0.41v-0.363
					h9.345v0.363h-0.156c-1.834,0-3.305,0.649-4.453,1.948l-7.946,9.415l11.094,13.722c2.475,3.256,4.801,5.604,6.984,7.06
					c2.164,1.467,4.58,2.26,7.252,2.396L193.067,68.455z"/>
				<path fill="#114544" d="M219.632,61.156H220v0.398h-13.024v-0.398h0.375c0.588,0,1.041-0.186,1.326-0.548
					c0.281-0.372,0.421-0.715,0.421-1.042c0-0.318-0.068-0.646-0.203-0.973l-1.995-4.992h-9.551l-2.123,4.992
					c-0.138,0.352-0.206,0.684-0.206,0.996c0,0.309,0.161,0.646,0.457,1.019c0.294,0.362,0.746,0.548,1.343,0.548h0.322v0.398
					h-8.729v-0.398h0.36c0.641,0,1.264-0.191,1.889-0.574c0.624-0.372,1.135-0.947,1.543-1.705l9.438-21.23
					c1.269-2.676,1.95-4.449,2.026-5.313h0.38l12.115,26.463c0.408,0.789,0.915,1.373,1.553,1.767
					C218.343,60.961,218.979,61.156,219.632,61.156z M198.04,51.896h8.165l-3.966-9.984L198.04,51.896z"/>
			</g>
		</g>
		<g>
			<g>
				<path fill="#114544" d="M85.162,58.924l0.006-0.008v-0.137l0.063-0.003c-0.008-0.066-0.07-0.159-0.167-0.183h-0.001v0.033
					l-0.188,0.021c-0.221,0.121-0.377,0.205-0.377,0.207c-0.014,0.006-0.413,0.199-0.466,0.22c-0.176,0.06-0.335,0.06-0.51,0.017
					c-0.254-0.053-0.71-0.361-0.633-1.078c0.152-1.027,0.165-2.076,0.031-3.129c-0.003-0.012-0.005-0.047-0.014-0.08
					c-0.019-0.09-0.078-0.14-0.146-0.164c-0.107-0.002-0.171,0.027-0.211,0.076l-0.041,0.117c-0.051,0.126-0.103,0.251-0.159,0.379
					l-0.067,0.156c-0.008,0.026-0.019,0.057-0.034,0.08c-0.066,0.158-0.146,0.325-0.227,0.488l-0.043,0.056
					c-0.06,0.137-0.143,0.294-0.23,0.462c-0.012,0.017-0.027,0.037-0.044,0.067l-0.037,0.064c-0.034,0.044-0.065,0.103-0.093,0.157
					c-0.033,0.061-0.068,0.121-0.11,0.18l-0.401,0.611c-0.026,0.031-0.053,0.072-0.082,0.102c-0.02,0.038-0.054,0.08-0.089,0.125
					c-0.03,0.045-0.061,0.079-0.09,0.123l-0.073,0.093c-0.026,0.038-0.053,0.067-0.078,0.106c-0.07,0.077-0.136,0.15-0.195,0.226
					c-0.039,0.05-0.081,0.095-0.124,0.146c-0.029,0.041-0.069,0.074-0.097,0.119c-0.076,0.072-0.122,0.127-0.173,0.189l-0.225,0.228
					c-0.031,0.025-0.059,0.059-0.082,0.084c-0.03,0.035-0.057,0.062-0.088,0.099l-0.131,0.113c-0.042,0.043-0.086,0.079-0.126,0.121
					c-0.08,0.074-0.166,0.158-0.263,0.231l-0.202,0.177c-0.032,0.027-0.079,0.068-0.125,0.098l-0.043,0.037
					c-0.076,0.066-0.151,0.131-0.237,0.195l-0.056,0.035c-0.082,0.063-0.133,0.104-0.189,0.139
					c-0.067,0.051-0.132,0.102-0.201,0.152c-0.031,0.016-0.055,0.033-0.083,0.052c-0.033,0.028-0.066,0.052-0.1,0.071l-0.131,0.087
					c-0.052,0.03-0.109,0.073-0.167,0.099c-0.055,0.046-0.142,0.102-0.225,0.146c-0.069,0.048-0.151,0.093-0.229,0.133
					c-0.12,0.068-0.219,0.129-0.319,0.176c-0.025,0.012-0.062,0.029-0.098,0.045c-0.043,0.031-0.09,0.053-0.133,0.08l0,0
					l-0.063,0.027c-0.054,0.023-0.097,0.051-0.146,0.066c-0.126,0.064-0.279,0.137-0.444,0.207c-0.045,0.02-0.113,0.053-0.181,0.082
					c-0.179,0.076-0.346,0.137-0.508,0.201l-0.136-0.174l0,0l0.075,0.189c-0.019,0.016-0.04,0.025-0.057,0.027l-0.01,0.005
					l-0.212,0.068c-0.101,0.029-0.202,0.067-0.305,0.091c-0.049,0.029-0.1,0.041-0.142,0.051l-0.118,0.027
					c-0.137,0.043-0.271,0.074-0.404,0.111c-0.038,0.008-0.082,0.018-0.138,0.027c-0.14,0.041-0.297,0.068-0.45,0.104
					c-0.037,0.007-0.067,0.013-0.102,0.013c-0.135,0.023-0.309,0.058-0.474,0.077c-0.046,0.008-0.121,0.02-0.186,0.02
					c-0.102,0.023-0.238,0.043-0.387,0.051c-0.075,0.006-0.109,0.01-0.145,0.01c-0.142,0.027-0.322,0.033-0.489,0.033
					c-0.037,0.008-0.1,0.01-0.162,0.01c-0.102,0.008-0.248,0.01-0.382,0c-0.029,0.004-0.054,0.004-0.082,0.004l-0.028,0.006
					l-0.061-0.002c-0.079-0.004-0.156-0.006-0.237-0.008c-0.088-0.004-0.182-0.005-0.274-0.01c-0.022,0-0.05-0.002-0.08-0.006
					h-0.063c-0.15-0.021-0.288-0.029-0.425-0.048c0,0.003-0.031,0-0.064-0.002l-0.055-0.004c-0.196-0.015-0.362-0.052-0.533-0.077
					c-0.025-0.001-0.069-0.001-0.118-0.015c-0.152-0.028-0.306-0.052-0.452-0.091c-0.047-0.006-0.086-0.014-0.116-0.021
					c-0.224-0.053-0.406-0.088-0.586-0.141c-0.099-0.021-0.176-0.049-0.266-0.074c-0.069-0.016-0.159-0.043-0.245-0.07
					c-1.338-0.42-2.578-1.059-3.677-1.887c-1.071-0.805-2.001-1.773-2.769-2.884l-0.038-0.063c-0.238-0.346-0.446-0.683-0.616-1.009
					l-0.072-0.133c-0.047-0.078-0.094-0.163-0.134-0.254c-0.019-0.039-0.033-0.074-0.046-0.113
					c-0.163-0.321-0.313-0.668-0.443-1.023c-0.029-0.052-0.042-0.096-0.055-0.143l-0.129-0.385
					c-0.123-0.358-0.226-0.734-0.331-1.201l-0.005-0.064c-0.072-0.313-0.131-0.654-0.169-0.969c-0.006-0.04-0.01-0.066-0.01-0.101
					c-0.021-0.157-0.041-0.351-0.052-0.536v-0.08c-0.018-0.189-0.031-0.379-0.031-0.582c0-0.265,0-0.535,0.013-0.799
					c0-0.014,0-0.053,0.008-0.088c0-0.045,0.002-0.086,0.004-0.116c0.004-0.04,0.006-0.07,0.006-0.11l0.011-0.115
					c0.062-0.728,0.186-1.426,0.376-2.139c0.248-0.907,0.596-1.782,1.038-2.598V44.58l0.09-0.003
					c0.358-0.644,0.771-1.249,1.226-1.804c0.022-0.021,0.033-0.038,0.043-0.051l0.022-0.027c0.103-0.127,0.176-0.21,0.249-0.281
					c0.012-0.022,0.054-0.065,0.093-0.106c0.018-0.019,0.036-0.036,0.053-0.058c0.066-0.078,0.131-0.142,0.193-0.205
					c0.094-0.101,0.188-0.199,0.301-0.297c0.015-0.023,0.035-0.045,0.051-0.061l0.072-0.1l0.033,0.004l0.083-0.067
					c0.193-0.187,0.396-0.358,0.61-0.532v-0.105l0.147-0.006c0.039-0.029,0.077-0.061,0.116-0.081
					c0.093-0.079,0.216-0.17,0.343-0.255c0.872-0.622,1.857-1.134,2.919-1.518c0.005-0.002,0.036-0.02,0.079-0.026
					c0.129-0.046,0.257-0.089,0.395-0.127c0.041-0.017,0.104-0.032,0.169-0.044c0.909-0.278,1.831-0.449,2.717-0.501
					c0.043-0.011,0.081-0.011,0.106-0.011c0.152-0.011,0.291-0.021,0.439-0.021h0.241c0.262,0,0.529,0.013,0.796,0.031
					c0.21,0.014,0.427,0.03,0.633,0.063c0.011-0.006,0.037,0,0.064,0.002l0.141,0.022c0.184,0.029,0.376,0.061,0.562,0.096
					l0.056,0.012c0.082,0.012,0.155,0.028,0.229,0.035l0.636,0.139v-0.01l0.809,0.225c0.586,0.147,1.17,0.219,1.74,0.193h0.055
					c0.239,0,0.431-0.012,0.622-0.039c1.888-0.191,3.593-1.091,4.818-2.537l-0.027-0.426c-0.325-4.452-2.742-8.598-6.472-11.088
					c-0.115-0.077-0.234-0.157-0.363-0.234c-0.677-0.43-1.399-0.798-2.151-1.113c-0.501-0.208-1.024-0.379-1.462-0.52l-0.404-0.106
					c-2.285-0.612-4.677-0.88-7.063-0.798c-3.604,0.135-7.192,1.109-10.384,2.82c-0.077,0.035-0.141,0.07-0.206,0.106
					c-0.165,0.085-0.31,0.162-0.456,0.25l-0.063,0.031c-0.267,0.153-0.534,0.316-0.8,0.48l-0.408,0.246l0.008-0.385
					c0.009-0.488-0.029-0.953-0.115-1.431c-0.137-0.786-0.405-1.54-0.8-2.247l-0.022-0.054c-0.04-0.068-0.066-0.105-0.091-0.151
					c-0.21-0.28-0.684-0.416-1.054-0.25c-0.006,0.002-0.021,0.013-0.049,0.023c-0.07,0.048-0.134,0.095-0.196,0.14
					c-2.204,1.617-3.722,3.837-4.418,6.438c-0.402,1.457-0.517,3.385-0.306,5.026v0.063l-0.031,0.086
					c-1.237,1.977-2.174,4.133-2.787,6.405l-0.149,0.593c-0.783,3.241-0.882,6.537-0.288,9.799c0.494,2.697,1.445,5.266,2.827,7.631
					c3.196,5.505,8.343,9.43,14.493,11.059c1.203,0.324,2.442,0.554,3.681,0.692l0.358,0.035c0.083,0.006,0.172,0.013,0.256,0.021
					l0.199,0.013c0.006,0,0.012,0,0.022,0c0.035,0,0.087,0.002,0.143,0.027l0.69,0.017c0.31,0.015,0.602,0.015,0.901,0.015h0.145
					c0.136-0.001,0.271-0.003,0.406-0.005c0.133-0.001,0.268-0.005,0.403-0.01c0.018-0.01,0.079-0.01,0.128-0.01
					c0.642-0.035,1.272-0.074,1.855-0.15c0.293-0.046,0.592-0.09,0.893-0.13l0.105-0.037c0.276-0.031,0.531-0.084,0.798-0.142
					l0.074-0.016c0.604-0.13,1.161-0.266,1.685-0.41V68.78l0.213-0.009c0.153-0.055,0.349-0.11,0.547-0.164l0.06-0.027
					c0.072-0.022,0.166-0.059,0.258-0.086c0.065-0.014,0.128-0.044,0.191-0.065c0.069-0.017,0.138-0.049,0.204-0.065
					c0.41-0.147,0.827-0.303,1.231-0.475v-0.071l0.172-0.008c0.657-0.281,1.328-0.608,2-0.969l1.057-0.605
					C80.666,64.379,83.26,61.855,85.162,58.924z"/>
				<polygon fill="#114544" points="59.747,54.639 59.742,54.639 59.747,54.639 				"/>
				<polygon fill="#114544" points="72.152,62.428 72.152,62.428 72.152,62.428 				"/>
			</g>
			<linearGradient id="SVGID_1_" gradientUnits="userSpaceOnUse" x1="48.3647" y1="33.3149" x2="48.3647" y2="21.3701">
				<stop  offset="0" style="stop-color:#114544"/>
				<stop  offset="0.1323" style="stop-color:#416853"/>
				<stop  offset="0.3584" style="stop-color:#8D9F6C"/>
				<stop  offset="0.52" style="stop-color:#BEC27B"/>
				<stop  offset="0.6" style="stop-color:#D0CF81"/>
				<stop  offset="0.9" style="stop-color:#FFF698"/>
			</linearGradient>
			<path fill="url(#SVGID_1_)" d="M52.154,25.796l-0.011,0.01c-0.05,0.029-0.09,0.06-0.139,0.091
				c-0.271,0.177-0.541,0.356-0.798,0.547c-0.133,0.078-0.254,0.168-0.38,0.265c-0.264,0.192-0.512,0.382-0.766,0.579
				c-0.289,0.239-0.578,0.479-0.87,0.739c-0.078,0.061-0.147,0.129-0.229,0.199C48.68,28.474,48.41,28.734,48.14,29
				c-0.299,0.301-0.601,0.608-0.887,0.929c-0.233,0.257-0.463,0.517-0.682,0.787c-0.011,0.008-0.023,0.019-0.032,0.026
				c-0.09,0.122-0.19,0.239-0.3,0.37c-0.011,0.021-0.017,0.04-0.041,0.06c-0.148,0.186-0.3,0.387-0.451,0.587
				c-0.17,0.23-0.348,0.479-0.509,0.726c-0.122,0.169-0.23,0.338-0.341,0.508c0,0,0,0.013-0.01,0.013l-0.01,0.008v0.011h-0.011
				c-0.01,0-0.031,0.029-0.04,0.069c0,0,0,0,0,0.007c-0.031,0.044-0.061,0.083-0.089,0.122c0,0.009-0.012,0.009-0.012,0.021
				c-0.017,0.027-0.03,0.039-0.049,0.071c-0.201-1.556-0.121-3.537,0.312-5.109c0.728-2.73,2.35-4.977,4.472-6.532
				c0.079-0.061,0.162-0.118,0.249-0.179c0.03-0.009,0.04-0.021,0.061-0.03c0.473-0.209,1.031-0.06,1.333,0.348
				c0.018,0.039,0.039,0.069,0.059,0.1c0.02,0.03,0.03,0.059,0.049,0.099c0.403,0.718,0.682,1.495,0.821,2.312
				C52.123,24.811,52.166,25.298,52.154,25.796z"/>
			<path fill="#114544" d="M52.154,25.796l-0.011,0.01c-0.05,0.029-0.09,0.06-0.139,0.091c-0.271,0.177-0.541,0.356-0.798,0.547
				c-0.133,0.078-0.254,0.168-0.38,0.265c-0.264,0.192-0.512,0.382-0.766,0.579c-0.289,0.239-0.578,0.479-0.87,0.739
				c-0.078,0.061-0.147,0.129-0.229,0.199C48.68,28.474,48.41,28.734,48.14,29c-0.299,0.301-0.601,0.608-0.887,0.929
				c-0.233,0.257-0.463,0.517-0.682,0.787c-0.011,0.008-0.023,0.019-0.032,0.026c-0.09,0.122-0.19,0.239-0.3,0.37
				c-0.011,0.021-0.017,0.04-0.041,0.06c-0.148,0.186-0.3,0.387-0.451,0.587c-0.17,0.23-0.348,0.479-0.509,0.726
				c-0.122,0.169-0.23,0.338-0.341,0.508c0,0,0,0.013-0.01,0.013l-0.01,0.008v0.011c-0.021,0.019-0.029,0.038-0.05,0.069
				c0,0,0,0,0,0.007c-0.031,0.044-0.061,0.083-0.089,0.122c0.522-0.956,4.622-8.304,7.295-8.899
				C52.123,24.811,52.166,25.298,52.154,25.796z"/>
			<linearGradient id="SVGID_2_" gradientUnits="userSpaceOnUse" x1="70.6465" y1="24.6187" x2="79.0103" y2="39.1051">
				<stop  offset="0.1" style="stop-color:#FFF698"/>
				<stop  offset="0.1995" style="stop-color:#EAE48E"/>
				<stop  offset="0.3176" style="stop-color:#D7D584"/>
				<stop  offset="0.4" style="stop-color:#D0CF81"/>
				<stop  offset="0.4625" style="stop-color:#CACB7F"/>
				<stop  offset="0.5444" style="stop-color:#BABF7A"/>
				<stop  offset="0.6371" style="stop-color:#9FAB71"/>
				<stop  offset="0.7377" style="stop-color:#799065"/>
				<stop  offset="0.8438" style="stop-color:#496D56"/>
				<stop  offset="0.95" style="stop-color:#114544"/>
			</linearGradient>
			<path fill="url(#SVGID_2_)" d="M82.408,36.598c-1.252,1.514-3.043,2.479-5.004,2.68c-0.218,0.03-0.428,0.038-0.651,0.038h-0.049
				c-0.588,0.022-1.201-0.048-1.802-0.198l-0.368-0.104c-0.061-0.015-0.112-0.023-0.171-0.045c-3.021-0.965-5.036-3.703-5.166-6.723
				c-0.024-0.744,0.051-1.504,0.254-2.246c0.258-0.988,0.72-1.874,1.31-2.631c-0.231-0.547-0.292-1.177-0.122-1.794
				c0.332-1.225,1.411-2.038,2.624-2.099c0.769,0.317,1.499,0.695,2.18,1.125c0.132,0.079,0.25,0.157,0.372,0.238
				c3.804,2.54,6.233,6.711,6.564,11.252C82.387,36.261,82.4,36.43,82.408,36.598z"/>
			<path fill="#114544" d="M85.421,58.902c-0.012,0.018-0.021,0.045-0.029,0.078c0,0-0.014,0-0.014,0.011
				c-0.008,0.018-0.017,0.025-0.025,0.051h-0.014c-1.97,3.034-4.595,5.544-7.625,7.388c-0.01,0.006-0.031,0.006-0.04,0.015
				c-0.161,0.098-0.332,0.201-0.489,0.297c-0.162,0.1-0.324,0.182-0.482,0.267c-0.008,0-0.02,0.01-0.028,0.01
				c-0.661,0.369-1.352,0.705-2.054,1c-0.01,0-0.01,0-0.01,0.01c-0.45,0.19-0.913,0.375-1.38,0.538
				c-0.129,0.043-0.261,0.083-0.393,0.13c-0.088,0.021-0.179,0.061-0.259,0.088c-0.222,0.068-0.439,0.139-0.658,0.2
				c-0.013,0-0.013,0-0.013,0c0,0.007,0,0.007,0,0.007c-0.599,0.174-1.212,0.322-1.821,0.453c-0.031,0.01-0.058,0.01-0.08,0.019
				c-0.28,0.06-0.549,0.113-0.821,0.144l-0.119,0.038c-0.301,0.042-0.602,0.087-0.902,0.136c-0.621,0.072-1.25,0.127-1.88,0.15
				c-0.043,0-0.082,0-0.122,0.011c-0.271,0.007-0.542,0.007-0.812,0.016h-0.149c-0.302,0-0.599,0-0.908-0.016
				c-0.242-0.011-0.494-0.02-0.734-0.024c-0.041-0.01-0.087-0.01-0.127-0.01c-0.153-0.021-0.302-0.035-0.463-0.045
				c-0.118-0.01-0.24-0.014-0.358-0.036c-0.602-0.288-1.183-0.593-1.732-0.964c-0.111-0.07-0.22-0.145-0.322-0.217
				c-0.008,0-0.008,0-0.02,0c-0.058-0.036-0.127-0.079-0.189-0.14c-0.121-0.069-0.229-0.156-0.348-0.252
				c-0.043-0.018-0.07-0.035-0.112-0.083c-0.152-0.1-0.299-0.211-0.452-0.343c-0.149-0.104-0.296-0.234-0.449-0.365
				c-0.13-0.112-0.25-0.218-0.381-0.349c-0.009,0-0.03-0.024-0.04-0.033c-0.21-0.182-0.419-0.383-0.62-0.592
				c-0.03-0.027-0.051-0.053-0.07-0.068c-0.371-0.393-0.729-0.791-1.062-1.207c-0.029-0.036-0.047-0.063-0.078-0.105
				c-0.152-0.181-0.292-0.373-0.432-0.574c-0.17-0.223-0.327-0.468-0.48-0.701c-0.16-0.245-0.3-0.479-0.441-0.732
				c-0.14-0.252-0.269-0.496-0.397-0.747c-0.108-0.218-0.222-0.435-0.322-0.669c-0.021-0.033-0.03-0.07-0.04-0.096
				c-0.12-0.26-0.228-0.528-0.328-0.791c-0.101-0.27-0.193-0.529-0.283-0.799c-0.07-0.209-0.14-0.433-0.198-0.652
				c-0.101-0.337-0.184-0.674-0.253-1.016c-0.057-0.271-0.109-0.547-0.149-0.825c-0.046-0.269-0.089-0.548-0.121-0.815V56.65
				c-0.028-0.25-0.049-0.484-0.059-0.738c-0.111-1.728,0.059-3.518,0.54-5.281c1.201-4.475,4.144-8.018,7.896-10.129
				c0.28-0.16,0.57-0.317,0.859-0.463c0,0.095,0.014,0.193,0.021,0.285c0.01,0.17,0.031,0.326,0.062,0.486c0,0,0,0,0,0.01
				c0.038,0.26,0.101,0.529,0.179,0.787c0.239-0.149,0.479-0.31,0.712-0.458c-0.233,0.188-0.455,0.378-0.664,0.577
				c-0.009,0-0.009,0-0.019,0.01c-0.021,0.021-0.051,0.047-0.082,0.079c-0.01,0-0.01,0.013-0.019,0.021c0,0,0,0-0.008,0
				c-0.013,0.01-0.031,0.03-0.043,0.049c-0.11,0.1-0.209,0.199-0.311,0.309c-0.057,0.061-0.119,0.121-0.18,0.189
				c-0.047,0.062-0.11,0.111-0.161,0.18c-0.068,0.068-0.139,0.15-0.209,0.229c-0.01,0.017-0.03,0.04-0.04,0.061
				c-0.017,0.019-0.03,0.039-0.048,0.058c-0.481,0.578-0.903,1.203-1.263,1.873c0,0-0.009,0-0.009,0.008
				c-0.441,0.808-0.791,1.674-1.042,2.598c-0.19,0.713-0.31,1.409-0.367,2.104c0,0.025,0,0.061-0.014,0.096
				c0,0.086-0.01,0.164-0.01,0.242c0,0.01,0,0.018,0,0.018c-0.009,0.019-0.009,0.045-0.009,0.063
				c-0.007,0.259-0.007,0.528-0.007,0.791c0,0.19,0.007,0.383,0.026,0.582v0.074c0.014,0.178,0.031,0.368,0.051,0.542
				c0,0.017,0.01,0.044,0.01,0.073c0.04,0.326,0.1,0.664,0.171,0.996c0,0.008,0,0.008,0,0.017c0.091,0.399,0.191,0.791,0.32,1.175
				c0.012,0.024,0.012,0.051,0.02,0.068c0.04,0.113,0.081,0.234,0.121,0.342c0.01,0.041,0.019,0.068,0.041,0.098
				c0.129,0.359,0.279,0.707,0.45,1.046c0.009,0.024,0.019,0.061,0.04,0.096c0.048,0.114,0.108,0.21,0.17,0.321
				c0.009,0.018,0.019,0.041,0.03,0.061c0.189,0.361,0.411,0.705,0.639,1.035c0,0.01,0,0.01,0,0.01
				c0.741,1.074,1.663,2.041,2.725,2.841c1.069,0.806,2.288,1.433,3.621,1.851c0.079,0.021,0.161,0.053,0.24,0.068
				c0.092,0.027,0.171,0.053,0.249,0.07c0.184,0.051,0.361,0.088,0.542,0.129c0.052,0.01,0.091,0.027,0.14,0.027
				c0.154,0.043,0.311,0.068,0.471,0.096c0.02,0.01,0.049,0.01,0.071,0.01c0.178,0.024,0.349,0.059,0.529,0.076
				c0.051,0,0.1,0.01,0.152,0.01c0.139,0.014,0.279,0.025,0.41,0.043c0.047,0,0.088,0.008,0.141,0.008
				c0.171,0.01,0.34,0.01,0.511,0.019c0.047-0.009,0.096,0,0.147-0.009c0.132,0.009,0.265,0.009,0.39,0c0.052,0,0.1,0,0.162-0.01
				c0.16,0,0.332-0.008,0.489-0.037c0.053,0,0.092-0.004,0.131-0.004c0.14-0.01,0.27-0.027,0.4-0.055c0.049,0,0.11-0.01,0.158-0.017
				c0.163-0.017,0.333-0.052,0.502-0.078c0.018,0,0.039-0.009,0.061-0.009c0.149-0.033,0.298-0.061,0.449-0.104
				c0.049-0.008,0.089-0.016,0.133-0.027c0.166-0.042,0.336-0.086,0.519-0.139c0.039-0.008,0.079-0.016,0.109-0.047
				c0.161-0.031,0.319-0.092,0.481-0.143c0.009-0.012,0.031-0.012,0.048-0.02c0.039-0.006,0.083-0.033,0.122-0.043
				c0.163-0.061,0.32-0.122,0.481-0.189c0.068-0.027,0.139-0.054,0.2-0.089c0.158-0.068,0.31-0.138,0.45-0.207
				c0.049-0.018,0.088-0.044,0.133-0.062c0.017-0.008,0.038-0.018,0.057-0.025c0.083-0.045,0.162-0.096,0.239-0.131
				c0.091-0.043,0.185-0.088,0.262-0.139c0.088-0.053,0.179-0.105,0.258-0.146c0.082-0.055,0.162-0.105,0.231-0.158
				c0.101-0.054,0.192-0.113,0.292-0.174c0.059-0.047,0.119-0.088,0.181-0.131c0.131-0.083,0.258-0.191,0.389-0.277
				c0.009-0.01,0.03-0.033,0.039-0.043h0.013c0.08-0.061,0.149-0.113,0.228-0.184c0.052-0.043,0.113-0.086,0.163-0.131
				c0.068-0.06,0.138-0.121,0.208-0.182c0.091-0.068,0.171-0.147,0.25-0.229c0.083-0.068,0.162-0.153,0.253-0.231
				c0.057-0.062,0.108-0.114,0.171-0.179c0.056-0.057,0.118-0.119,0.178-0.178c0.07-0.078,0.131-0.148,0.201-0.218
				c0.071-0.087,0.149-0.173,0.22-0.26c0.061-0.08,0.13-0.157,0.2-0.235c0.048-0.063,0.091-0.121,0.14-0.184
				c0.061-0.088,0.129-0.163,0.191-0.259c0.041-0.054,0.08-0.105,0.109-0.148c0.088-0.14,0.181-0.268,0.272-0.408
				c0.026-0.052,0.056-0.087,0.088-0.14c0.069-0.113,0.13-0.227,0.201-0.339c0.02-0.042,0.052-0.079,0.068-0.121
				c0.092-0.157,0.171-0.313,0.25-0.479c0.012-0.008,0.012-0.017,0.021-0.026c0.078-0.156,0.161-0.316,0.231-0.486
				c0.008-0.025,0.018-0.043,0.018-0.052c0.083-0.188,0.161-0.364,0.231-0.546c0.009-0.045,0.029-0.08,0.04-0.115c0,0,0,0,0-0.006
				c0.09-0.16,0.28-0.246,0.471-0.201c0.139,0.041,0.249,0.156,0.289,0.277c0.013,0.045,0.013,0.09,0.021,0.131
				c0,0.009,0,0.009,0,0.009c0.131,1.041,0.131,2.103-0.029,3.179c-0.08,0.73,0.472,0.853,0.472,0.853
				c0.125,0.034,0.257,0.034,0.379-0.009c0.049-0.018,0.441-0.205,0.441-0.205s0.158-0.09,0.38-0.212c0,0,0,0,0.009-0.009
				c0.018-0.009,0.04-0.018,0.061-0.025c0.01,0,0.01-0.017,0.01-0.017c0.091-0.028,0.179-0.036,0.269-0.019
				C85.339,58.451,85.479,58.678,85.421,58.902z M66.955,39.229c-1.021,0.365-1.991,0.865-2.868,1.49
				c0.707-0.555,1.356-1.203,1.938-1.92c1-1.234,1.761-2.689,2.21-4.332c0.012-0.019,0.012-0.039,0.021-0.057
				c0.188-0.7,0.31-1.396,0.372-2.082c-0.201,0.04-0.393,0.08-0.581,0.13v-0.281l0.01-0.019l0.01-0.06l0.029-0.218l0.06-0.448
				c0.023-0.269,0.124-0.628,0.211-0.977l0.152-0.507l0.039-0.132l0.032-0.107l0.017-0.049l0.09-0.2l0.19-0.408l0.24-0.462
				c0.161-0.308,0.361-0.563,0.542-0.832c0.139-0.2,0.3-0.37,0.449-0.547c-0.019-0.14-0.04-0.27-0.04-0.408
				c-0.041-0.27,0.01-0.54,0.04-0.797l0.1-0.378c0.021-0.068,0.021-0.1,0.068-0.208l0.071-0.151
				c0.062-0.108,0.081-0.201,0.162-0.318l0.232-0.331c0.069-0.1,0.167-0.178,0.247-0.269c0.079-0.102,0.179-0.178,0.281-0.248
				c0.178-0.162,0.401-0.257,0.61-0.37c0.228-0.087,0.451-0.178,0.678-0.208c0.231-0.048,0.463-0.039,0.694-0.048
				c-1.212,0.061-2.292,0.874-2.624,2.099c-0.171,0.617-0.11,1.247,0.122,1.794c-0.59,0.757-1.052,1.643-1.31,2.631
				c-0.203,0.742-0.278,1.502-0.254,2.246c0.13,3.02,2.145,5.758,5.166,6.723v0.008c-0.069-0.018-0.129-0.037-0.19-0.048
				c-0.01-0.009-0.01-0.009-0.01-0.009c-0.122-0.031-0.239-0.061-0.361-0.09c-0.102-0.022-0.197-0.04-0.298-0.062h-0.013
				c-0.099-0.009-0.201-0.03-0.309-0.049c-0.189-0.038-0.39-0.069-0.581-0.099c-0.009,0-0.031,0-0.04-0.01
				c-0.04,0-0.079-0.013-0.131-0.013c-0.197-0.03-0.411-0.048-0.621-0.057c-0.257-0.021-0.52-0.03-0.777-0.03h-0.241
				c-0.151,0-0.292,0.009-0.439,0.018c-0.022,0-0.04,0-0.063,0.013c-0.929,0.049-1.841,0.227-2.721,0.497
				c-0.051,0.008-0.1,0.021-0.151,0.038c-0.14,0.04-0.268,0.083-0.398,0.131C66.996,39.208,66.977,39.216,66.955,39.229z"/>
			<linearGradient id="SVGID_3_" gradientUnits="userSpaceOnUse" x1="66.2549" y1="31.9092" x2="64.4919" y2="41.9078">
				<stop  offset="0.1" style="stop-color:#FFF698"/>
				<stop  offset="0.1884" style="stop-color:#F6EF94"/>
				<stop  offset="0.332" style="stop-color:#DEDA88"/>
				<stop  offset="0.4" style="stop-color:#D0CF81"/>
				<stop  offset="0.4472" style="stop-color:#C7C97E"/>
				<stop  offset="0.5243" style="stop-color:#AFB776"/>
				<stop  offset="0.6216" style="stop-color:#879A6A"/>
				<stop  offset="0.7354" style="stop-color:#507258"/>
				<stop  offset="0.85" style="stop-color:#114544"/>
			</linearGradient>
			<path fill="url(#SVGID_3_)" d="M68.628,32.328c-0.062,0.687-0.183,1.382-0.372,2.082c-0.01,0.018-0.01,0.039-0.021,0.057
				c-0.449,1.643-1.21,3.098-2.21,4.332c-0.582,0.717-1.231,1.365-1.938,1.92c-0.124,0.083-0.246,0.17-0.354,0.261
				c-0.05,0.03-0.101,0.069-0.15,0.11c0,0-0.009,0-0.009,0.008c-0.021,0.021-0.042,0.031-0.061,0.052h-0.008
				c-0.233,0.148-0.473,0.309-0.712,0.458c-0.078-0.258-0.141-0.527-0.179-0.787c0-0.01,0-0.01,0-0.01
				c-0.031-0.16-0.052-0.316-0.062-0.486c-0.008-0.092-0.021-0.19-0.021-0.285c-0.048-0.771,0.031-1.559,0.241-2.346
				c0.721-2.658,2.782-4.579,5.275-5.235C68.235,32.407,68.427,32.368,68.628,32.328z"/>
			<linearGradient id="SVGID_4_" gradientUnits="userSpaceOnUse" x1="50.6416" y1="26.6465" x2="72.3315" y2="64.2146">
				<stop  offset="0.1" style="stop-color:#FFF698"/>
				<stop  offset="0.1589" style="stop-color:#F6EF94"/>
				<stop  offset="0.2547" style="stop-color:#DEDA88"/>
				<stop  offset="0.3" style="stop-color:#D0CF81"/>
				<stop  offset="0.525" style="stop-color:#728B63"/>
				<stop  offset="0.75" style="stop-color:#114544"/>
			</linearGradient>
			<path fill="url(#SVGID_4_)" d="M73.262,23.477c-0.23,0.009-0.462,0-0.694,0.048c-0.227,0.03-0.45,0.121-0.678,0.208
				c-0.209,0.112-0.432,0.208-0.61,0.37c-0.102,0.069-0.203,0.146-0.281,0.248c-0.081,0.091-0.178,0.169-0.247,0.269L70.52,24.95
				c-0.082,0.117-0.1,0.209-0.162,0.318l-0.071,0.151c-0.047,0.108-0.047,0.14-0.068,0.208l-0.1,0.378
				c-0.03,0.258-0.081,0.527-0.04,0.797c0,0.139,0.021,0.268,0.04,0.408c-0.149,0.178-0.31,0.348-0.449,0.547
				c-0.181,0.269-0.381,0.524-0.542,0.832l-0.24,0.462l-0.19,0.408l-0.09,0.2l-0.017,0.049l-0.032,0.107l-0.039,0.132l-0.152,0.507
				c-0.087,0.349-0.188,0.708-0.211,0.977l-0.06,0.448l-0.029,0.218l-0.01,0.06l-0.01,0.019v0.281
				c-2.494,0.656-4.555,2.578-5.275,5.235c-0.21,0.787-0.289,1.574-0.241,2.346c-0.289,0.146-0.579,0.303-0.859,0.463
				c-3.753,2.111-6.695,5.654-7.896,10.129c-0.481,1.764-0.651,3.554-0.54,5.281c0.01,0.254,0.03,0.488,0.059,0.738v0.039
				c0.031,0.268,0.075,0.547,0.121,0.815c0.041,0.278,0.092,0.555,0.149,0.825c0.069,0.342,0.152,0.679,0.253,1.016
				c0.058,0.22,0.118,0.443,0.198,0.652c0.081,0.27,0.182,0.529,0.283,0.799c0.101,0.263,0.208,0.531,0.328,0.791
				c0.01,0.025,0.02,0.063,0.04,0.096c0.1,0.227,0.2,0.451,0.322,0.669c0.118,0.251,0.258,0.513,0.397,0.747
				c0.141,0.254,0.281,0.487,0.441,0.732c0.154,0.233,0.31,0.479,0.48,0.701c0.141,0.201,0.28,0.394,0.432,0.574
				c0.031,0.043,0.048,0.069,0.078,0.105c0.333,0.416,0.691,0.814,1.062,1.207c0.019,0.016,0.04,0.041,0.07,0.068
				c0.201,0.209,0.41,0.41,0.62,0.592c0.01,0.009,0.031,0.033,0.04,0.033c0.13,0.131,0.251,0.236,0.381,0.349
				c0.153,0.131,0.3,0.261,0.449,0.365c0.153,0.132,0.3,0.243,0.452,0.343c0.042,0.048,0.068,0.065,0.112,0.083
				c0.119,0.096,0.228,0.183,0.348,0.252c0.063,0.061,0.131,0.104,0.189,0.14c0.113,0.072,0.222,0.146,0.342,0.217
				c0.549,0.371,1.13,0.676,1.732,0.964c-1.232-0.14-2.473-0.363-3.713-0.698c-6.418-1.7-11.54-5.842-14.624-11.154
				c-1.38-2.371-2.349-4.975-2.853-7.708c-0.581-3.181-0.52-6.534,0.292-9.884c0.048-0.196,0.099-0.396,0.15-0.596
				c0.63-2.344,1.59-4.511,2.812-6.462v-0.008c0.019-0.032,0.032-0.043,0.049-0.071c0-0.012,0.012-0.012,0.012-0.021
				c0.028-0.039,0.058-0.078,0.089-0.122c0-0.007,0-0.007,0-0.007c0.021-0.031,0.03-0.05,0.05-0.069v-0.011l0.01-0.008
				c0.01,0,0.01-0.013,0.01-0.013c0.11-0.169,0.219-0.338,0.341-0.508c0.161-0.248,0.339-0.496,0.509-0.726
				c0.15-0.201,0.303-0.402,0.451-0.587c0.023-0.021,0.029-0.039,0.041-0.06c0.109-0.13,0.209-0.248,0.3-0.37
				c0.009-0.008,0.021-0.019,0.032-0.026c0.219-0.27,0.449-0.529,0.682-0.787c0.287-0.321,0.588-0.628,0.887-0.929
				c0.27-0.266,0.54-0.526,0.821-0.774c0.083-0.07,0.152-0.139,0.229-0.199c0.292-0.26,0.581-0.5,0.87-0.739
				c0.253-0.196,0.502-0.387,0.766-0.579c0.126-0.096,0.248-0.187,0.38-0.265c0.257-0.191,0.527-0.37,0.798-0.547
				c0.049-0.031,0.089-0.062,0.139-0.091l0.011-0.01c0.31-0.19,0.619-0.378,0.929-0.56h0.013c0.148-0.087,0.297-0.169,0.458-0.247
				c0.07-0.04,0.141-0.08,0.21-0.11c3.191-1.712,6.764-2.708,10.477-2.846c2.354-0.082,4.745,0.169,7.129,0.804
				c0.141,0.039,0.266,0.07,0.411,0.108C72.279,23.107,72.781,23.277,73.262,23.477z"/>
			<linearGradient id="SVGID_5_" gradientUnits="userSpaceOnUse" x1="74.874" y1="30.7744" x2="78.4047" y2="34.3051">
				<stop  offset="0" style="stop-color:#FFF698;stop-opacity:0"/>
				<stop  offset="0.8" style="stop-color:#FFF698"/>
			</linearGradient>
			<ellipse fill="url(#SVGID_5_)" cx="76.64" cy="32.54" rx="2.505" ry="2.491"/>
			<path fill="#114544" d="M77.728,32.54c0,0.594-0.491,1.08-1.088,1.08c-0.596,0-1.086-0.486-1.086-1.08
				c0-0.601,0.49-1.081,1.086-1.081C77.237,31.458,77.728,31.939,77.728,32.54z"/>
		</g>
	</g>
	<g>
		<path fill="#114544" d="M2.811,2.162h1.751v6.113h3.795v1.421H2.811V2.162z"/>
		<path fill="#114544" d="M24.397,8.296v1.399h-5.86V2.162h5.718v1.4h-3.978v1.635h3.514v1.357h-3.514v1.743H24.397z"/>
		<path fill="#114544" d="M35.735,9.579c-0.56-0.159-1.007-0.371-1.346-0.629l0.595-1.313c0.325,0.237,0.71,0.431,1.157,0.573
			c0.448,0.142,0.893,0.212,1.343,0.212c0.497,0,0.862-0.073,1.101-0.219c0.238-0.146,0.359-0.34,0.359-0.586
			c0-0.178-0.07-0.329-0.209-0.446c-0.146-0.12-0.324-0.212-0.544-0.286c-0.22-0.072-0.517-0.15-0.891-0.239
			c-0.577-0.132-1.05-0.269-1.417-0.404c-0.368-0.137-0.684-0.358-0.947-0.66c-0.263-0.303-0.393-0.7-0.393-1.204
			c0-0.439,0.118-0.833,0.356-1.189c0.236-0.354,0.595-0.634,1.074-0.842c0.481-0.208,1.066-0.316,1.76-0.316
			c0.481,0,0.954,0.06,1.418,0.177c0.458,0.113,0.862,0.278,1.21,0.491l-0.542,1.326C39.12,3.628,38.42,3.43,37.72,3.43
			c-0.49,0-0.853,0.082-1.086,0.238c-0.232,0.16-0.351,0.367-0.351,0.626c0,0.256,0.135,0.449,0.405,0.573
			c0.271,0.127,0.683,0.251,1.238,0.371c0.577,0.138,1.051,0.274,1.416,0.41c0.369,0.137,0.686,0.354,0.948,0.645
			c0.264,0.295,0.396,0.693,0.396,1.195c0,0.433-0.123,0.821-0.365,1.18c-0.241,0.353-0.604,0.634-1.086,0.843
			c-0.482,0.206-1.071,0.311-1.763,0.311C36.872,9.821,36.297,9.741,35.735,9.579z M38.076,0h1.819l-1.957,1.548h-1.32L38.076,0z"/>
		<path fill="#114544" d="M58.019,2.162v7.534H56.58l-3.773-4.572v4.572h-1.729V2.162h1.449l3.764,4.573V2.162H58.019z"/>
		<path fill="#114544" d="M73.993,8.077H70.48l-0.672,1.618h-1.794l3.373-7.534h1.729l3.386,7.534h-1.839L73.993,8.077z
			 M73.441,6.759l-1.199-2.888L71.04,6.759H73.441z"/>
		<path fill="#114544" d="M97.633,2.496c0.492,0.219,0.872,0.54,1.14,0.948c0.266,0.409,0.401,0.892,0.401,1.451
			c0,0.552-0.135,1.033-0.401,1.451c-0.269,0.411-0.648,0.726-1.14,0.943c-0.493,0.221-1.076,0.329-1.747,0.329h-1.525v2.078h-1.752
			V2.162h3.277C96.558,2.162,97.14,2.276,97.633,2.496z M96.989,5.856c0.273-0.225,0.412-0.548,0.412-0.962
			c0-0.422-0.138-0.748-0.412-0.972c-0.275-0.229-0.673-0.34-1.201-0.34h-1.427v2.614h1.427C96.316,6.196,96.714,6.085,96.989,5.856
			z"/>
		<path fill="#114544" d="M114.44,9.695l-1.467-2.099h-0.087h-1.522v2.099h-1.752V2.162h3.274c0.673,0,1.251,0.115,1.742,0.334
			c0.503,0.219,0.878,0.54,1.146,0.948c0.268,0.409,0.4,0.892,0.4,1.451c0,0.561-0.137,1.043-0.406,1.451
			c-0.271,0.402-0.661,0.711-1.152,0.928l1.7,2.422H114.44z M113.99,3.922c-0.274-0.229-0.679-0.34-1.196-0.34h-1.43v2.626h1.43
			c0.518,0,0.922-0.115,1.196-0.349c0.272-0.226,0.41-0.551,0.41-0.965C114.4,4.473,114.263,4.146,113.99,3.922z"/>
		<path fill="#114544" d="M132.886,8.274v1.421h-6.617V8.567l4.148-4.985h-4.066v-1.42h6.372v1.129l-4.149,4.983H132.886z"/>
		<path fill="#114544" d="M146.833,7.027v2.668h-1.746V7.003l-2.938-4.842h1.862l2.018,3.347l2.026-3.347h1.722L146.833,7.027z"/>
		<path fill="#114544" d="M160.293,9.579c-0.558-0.159-1.013-0.371-1.353-0.629l0.601-1.313c0.327,0.237,0.704,0.431,1.158,0.573
			c0.438,0.142,0.894,0.212,1.333,0.212c0.51,0,0.871-0.073,1.104-0.219c0.244-0.146,0.369-0.34,0.369-0.586
			c0-0.178-0.071-0.329-0.211-0.446c-0.154-0.12-0.326-0.212-0.541-0.286c-0.232-0.072-0.523-0.15-0.893-0.239
			c-0.587-0.132-1.059-0.269-1.422-0.404c-0.363-0.137-0.685-0.358-0.949-0.66c-0.267-0.303-0.4-0.7-0.4-1.204
			c0-0.439,0.122-0.833,0.369-1.189c0.232-0.354,0.588-0.634,1.068-0.842c0.475-0.208,1.068-0.316,1.76-0.316
			c0.482,0,0.957,0.06,1.423,0.177c0.452,0.113,0.857,0.278,1.204,0.491l-0.545,1.326c-0.694-0.396-1.394-0.595-2.09-0.595
			c-0.486,0-0.858,0.082-1.091,0.238c-0.228,0.16-0.351,0.367-0.351,0.626c0,0.256,0.137,0.449,0.409,0.573
			c0.272,0.127,0.685,0.251,1.237,0.371c0.574,0.138,1.049,0.274,1.411,0.41c0.376,0.137,0.68,0.354,0.95,0.645
			c0.262,0.295,0.395,0.693,0.395,1.195c0,0.433-0.121,0.821-0.355,1.18c-0.248,0.353-0.611,0.634-1.092,0.843
			c-0.484,0.206-1.076,0.311-1.766,0.311C161.422,9.821,160.851,9.741,160.293,9.579z"/>
		<path fill="#114544" d="M177.087,3.582h-2.418v-1.42h6.597v1.42h-2.421v6.113h-1.758V3.582z"/>
		<path fill="#114544" d="M196.011,8.077h-3.528l-0.659,1.618h-1.791l3.371-7.534h1.729l3.38,7.534h-1.843L196.011,8.077z
			 M195.46,6.759l-1.208-2.888l-1.195,2.888H195.46z"/>
		<path fill="#114544" d="M215.432,2.162v7.534h-1.421l-3.778-4.572v4.572h-1.742V2.162h1.457l3.757,4.573V2.162H215.432z
			 M212.448,0h1.811l-1.955,1.548h-1.314L212.448,0z"/>
	</g>
</g>
</svg>
